<?xml version="1.0" encoding="utf-8"?>
<!-- Generator: Adobe Illustrator 27.0.0, SVG Export Plug-In . SVG Version: 6.00 Build 0)  -->
<svg version="1.1" xmlns="http://www.w3.org/2000/svg" xmlns:xlink="http://www.w3.org/1999/xlink" x="0px" y="0px"
	 viewBox="0 0 1125 2436" style="enable-background:new 0 0 1125 2436;" xml:space="preserve">
<style type="text/css">
	.st0{fill:url(#SVGID_1_);}
	.st1{fill:#F0A49C;enable-background:new    ;}
	.st2{fill:#E66856;enable-background:new    ;}
	.st3{fill:#C22510;enable-background:new    ;}
</style>
<g id="Layer_1">
</g>
<g id="Layer_6">
	<linearGradient id="SVGID_1_" gradientUnits="userSpaceOnUse" x1="563.9684" y1="0" x2="563.9684" y2="2430.1931">
		<stop  offset="0" style="stop-color:#F9C18E"/>
		<stop  offset="1" style="stop-color:#FFFFFF"/>
	</linearGradient>
	<rect x="3" class="st0" width="1121.94" height="2430.19"/>
</g>
<g id="Layer_4">
	<path class="st1" d="M2.74,1477.01h95.85V568.32l23.9-62V366.29h21.89V211.95h9.02v153.47h31.08v149.14l79.04,205.06v616.06h57.32
		V953.3c0,0,88.23-236.71,88.23-228.91c0,7.8,0,637.3,0,637.3h31.08v-322.55h65.17V594.33l83.22-215.9l68.18,176.88h15.04v1028.35
		h82.55V994.92l45.95-119.22v-80.2h53.97v87.57h20.05v124.86h20.05l34.59,89.74h40.61v499.58h37.77V566.59h23.39v97.98h16.04
		L1125,867.63V2436H2.74V1477.01z"/>
</g>
<g id="Layer_3">
	<polygon class="st2" points="2.74,1501.09 57.14,1332.69 57.14,1677.23 77.86,1677.23 77.86,1522.38 122.31,1451.73 
		203.53,1451.73 203.53,1530.12 226.59,1530.12 226.59,2229.85 294.43,2229.85 294.43,1347.2 348.57,1347.2 348.57,1254.29 
		423.1,1254.29 423.1,1347.2 473.57,1347.2 496.29,1434.31 496.29,1582.38 591.54,1582.38 591.54,1417.85 611.59,1358.82 
		611.59,1085.89 664.06,1085.89 681.78,1152.67 681.78,1492.38 713.86,1492.38 713.86,1950.64 732.91,1950.64 732.91,1669.49 
		763.99,1573.67 805.1,1573.67 805.1,1821.44 850.75,1821.44 850.75,1692.72 869.27,1692.72 869.27,1556.25 928.92,1383.5 
		928.92,2096.3 946.47,2096.3 946.47,1735.3 989.58,1735.3 1008.63,1663.68 1080.82,1663.68 1080.82,1187.51 1124.73,1187.51 
		1124.73,2430.52 2.74,2430.52 	"/>
</g>
<g id="Layer_2">
	<polygon class="st3" points="2.74,2435.03 2.74,2105.97 48.45,2105.97 48.45,2009.19 69.34,1948.7 89.23,2006.29 89.23,2116.62 
		139.36,2183.4 139.36,2351.15 157.4,2351.8 157.4,1824.66 212.44,1824.66 212.44,1796.92 230.71,1796.92 230.71,1851.11 
		248.64,1851.11 248.64,1836.27 257.67,1836.27 257.67,2165.98 271.7,2165.98 271.7,1689.81 343.89,1599.8 343.89,2298.89 
		367.96,2298.89 367.96,1903.38 386,1903.38 386,1862.73 413.07,1862.73 413.07,1902.09 436.13,1902.09 436.13,2192.43 
		452.18,2192.11 452.18,1748.53 472.23,1695.62 472.23,1533.03 489.83,1533.03 509.33,1466.25 545.42,1533.03 545.42,1690.46 
		563.73,1731.75 563.97,2007.9 576.5,2009.19 576.5,1653.03 626.63,1797.24 626.63,2257.6 640.67,2258.89 640.67,2113.72 
		649.69,2113.72 649.69,2074.36 667.74,2074.36 667.74,2047.26 691.8,2047.26 691.8,2087.26 736.92,2087.26 746.95,2177.59 
		763.99,2084.68 763.99,1849.18 787.05,1849.5 787.05,1822.08 796.08,1823.37 796.08,1809.82 844.2,1809.82 869.27,1849.5 
		869.27,2113.07 890.32,2113.72 920.4,2026.61 920.4,1983.38 959.5,1983.06 959.5,2067.91 978.55,2067.91 978.55,2204.69 
		1001.61,2204.69 1001.61,1901.76 1033.7,1956.93 1033.7,2206.63 1061.77,2206.63 1061.77,1482.05 1124.73,1689.81 1124.73,2430.52 
			"/>
</g>
</svg>
